<mxfile host="app.diagrams.net" modified="2024-05-08T08:51:02.406Z" agent="Mozilla/5.0 (Windows NT 10.0; Win64; x64) AppleWebKit/537.36 (KHTML, like Gecko) Chrome/121.0.0.0 Safari/537.36 OPR/107.0.0.0" etag="F3NLS1Ts8bVevrvPlpfQ" version="24.3.1" type="github">
  <diagram name="Page-1" id="5f0bae14-7c28-e335-631c-24af17079c00">
    <mxGraphModel dx="1261" dy="678" grid="1" gridSize="10" guides="1" tooltips="1" connect="1" arrows="1" fold="1" page="1" pageScale="1" pageWidth="1100" pageHeight="850" background="none" math="0" shadow="0">
      <root>
        <mxCell id="0" />
        <mxCell id="1" parent="0" />
        <mxCell id="9ZwK6Me79E_A5cQdYJ6u-18" style="edgeStyle=orthogonalEdgeStyle;rounded=0;orthogonalLoop=1;jettySize=auto;html=1;exitX=0.5;exitY=1;exitDx=0;exitDy=0;entryX=0.5;entryY=0;entryDx=0;entryDy=0;endArrow=classic;endFill=1;dashed=1;" edge="1" parent="1" source="39150e848f15840c-5" target="39150e848f15840c-7">
          <mxGeometry relative="1" as="geometry" />
        </mxCell>
        <mxCell id="39150e848f15840c-5" value="ATM Machine" style="shape=component;align=left;spacingLeft=36;rounded=0;shadow=0;comic=0;labelBackgroundColor=none;strokeWidth=1;fontFamily=Verdana;fontSize=12;html=1;" parent="1" vertex="1">
          <mxGeometry x="530" y="70" width="120" height="60" as="geometry" />
        </mxCell>
        <mxCell id="39150e848f15840c-7" value="Bank&amp;nbsp;&lt;div&gt;Database&lt;/div&gt;" style="shape=component;align=left;spacingLeft=36;rounded=0;shadow=0;comic=0;labelBackgroundColor=none;strokeWidth=1;fontFamily=Verdana;fontSize=12;html=1;" parent="1" vertex="1">
          <mxGeometry x="530" y="215" width="120" height="60" as="geometry" />
        </mxCell>
        <mxCell id="39150e848f15840c-9" value="" style="ellipse;whiteSpace=wrap;html=1;rounded=0;shadow=0;comic=0;labelBackgroundColor=none;strokeWidth=1;fontFamily=Verdana;fontSize=12;align=center;" parent="1" vertex="1">
          <mxGeometry x="700" y="235" width="20" height="20" as="geometry" />
        </mxCell>
        <mxCell id="9ZwK6Me79E_A5cQdYJ6u-22" style="edgeStyle=orthogonalEdgeStyle;rounded=0;orthogonalLoop=1;jettySize=auto;html=1;entryX=0.5;entryY=1;entryDx=0;entryDy=0;dashed=1;" edge="1" parent="1" source="39150e848f15840c-10" target="39150e848f15840c-7">
          <mxGeometry relative="1" as="geometry" />
        </mxCell>
        <mxCell id="39150e848f15840c-10" value="Web Page" style="shape=component;align=left;spacingLeft=36;rounded=0;shadow=0;comic=0;labelBackgroundColor=none;strokeWidth=1;fontFamily=Verdana;fontSize=12;html=1;" parent="1" vertex="1">
          <mxGeometry x="530" y="530" width="120" height="60" as="geometry" />
        </mxCell>
        <mxCell id="39150e848f15840c-13" style="edgeStyle=elbowEdgeStyle;rounded=0;html=1;labelBackgroundColor=none;startArrow=none;startFill=0;startSize=8;endArrow=none;endFill=0;endSize=16;fontFamily=Verdana;fontSize=12;" parent="1" source="39150e848f15840c-9" target="39150e848f15840c-7" edge="1">
          <mxGeometry relative="1" as="geometry" />
        </mxCell>
        <mxCell id="39150e848f15840c-14" style="edgeStyle=elbowEdgeStyle;rounded=0;html=1;labelBackgroundColor=none;startArrow=none;startFill=0;startSize=8;endArrow=none;endFill=0;endSize=16;fontFamily=Verdana;fontSize=12;exitX=0.5;exitY=0;exitDx=0;exitDy=0;entryX=0.143;entryY=0.513;entryDx=0;entryDy=0;entryPerimeter=0;" parent="1" source="9ZwK6Me79E_A5cQdYJ6u-9" target="39150e848f15840c-5" edge="1">
          <mxGeometry relative="1" as="geometry">
            <mxPoint x="380" y="240" as="sourcePoint" />
            <Array as="points">
              <mxPoint x="280" y="90" />
            </Array>
          </mxGeometry>
        </mxCell>
        <mxCell id="39150e848f15840c-18" style="edgeStyle=orthogonalEdgeStyle;rounded=0;html=1;labelBackgroundColor=none;startArrow=none;startFill=0;startSize=8;endArrow=none;endFill=0;endSize=16;fontFamily=Verdana;fontSize=12;exitX=0.09;exitY=0.5;exitDx=0;exitDy=0;exitPerimeter=0;" parent="1" source="39150e848f15840c-10" edge="1">
          <mxGeometry relative="1" as="geometry">
            <Array as="points">
              <mxPoint x="290" y="560" />
            </Array>
            <mxPoint x="465" y="560" as="sourcePoint" />
            <mxPoint x="290" y="280" as="targetPoint" />
          </mxGeometry>
        </mxCell>
        <mxCell id="9ZwK6Me79E_A5cQdYJ6u-1" style="edgeStyle=elbowEdgeStyle;rounded=0;html=1;labelBackgroundColor=none;startArrow=none;startFill=0;startSize=8;endArrow=none;endFill=0;endSize=16;fontFamily=Verdana;fontSize=12;exitX=1;exitY=0.5;exitDx=0;exitDy=0;" edge="1" parent="1" source="39150e848f15840c-5">
          <mxGeometry relative="1" as="geometry">
            <mxPoint x="730" y="250" as="sourcePoint" />
            <mxPoint x="700" y="100" as="targetPoint" />
            <Array as="points" />
          </mxGeometry>
        </mxCell>
        <mxCell id="9ZwK6Me79E_A5cQdYJ6u-6" value="" style="ellipse;whiteSpace=wrap;html=1;rounded=0;shadow=0;comic=0;labelBackgroundColor=none;strokeWidth=1;fontFamily=Verdana;fontSize=12;align=center;" vertex="1" parent="1">
          <mxGeometry x="700" y="90" width="20" height="20" as="geometry" />
        </mxCell>
        <mxCell id="9ZwK6Me79E_A5cQdYJ6u-9" value="Customer&amp;nbsp;&lt;div&gt;&amp;nbsp;Console&lt;/div&gt;" style="shape=component;align=left;spacingLeft=36;rounded=0;shadow=0;comic=0;labelBackgroundColor=none;strokeWidth=1;fontFamily=Verdana;fontSize=12;html=1;" vertex="1" parent="1">
          <mxGeometry x="230" y="220" width="120" height="60" as="geometry" />
        </mxCell>
        <mxCell id="9ZwK6Me79E_A5cQdYJ6u-11" value="Card Reader" style="shape=component;align=left;spacingLeft=36;rounded=0;shadow=0;comic=0;labelBackgroundColor=none;strokeWidth=1;fontFamily=Verdana;fontSize=12;html=1;" vertex="1" parent="1">
          <mxGeometry x="380" y="365" width="120" height="60" as="geometry" />
        </mxCell>
        <mxCell id="9ZwK6Me79E_A5cQdYJ6u-14" value="" style="endArrow=none;html=1;rounded=0;entryX=0.993;entryY=1.02;entryDx=0;entryDy=0;entryPerimeter=0;exitX=0.5;exitY=0;exitDx=0;exitDy=0;" edge="1" parent="1" source="9ZwK6Me79E_A5cQdYJ6u-11" target="9ZwK6Me79E_A5cQdYJ6u-9">
          <mxGeometry width="50" height="50" relative="1" as="geometry">
            <mxPoint x="340" y="350" as="sourcePoint" />
            <mxPoint x="390" y="300" as="targetPoint" />
          </mxGeometry>
        </mxCell>
        <mxCell id="9ZwK6Me79E_A5cQdYJ6u-15" value="" style="endArrow=classic;dashed=1;html=1;rounded=0;exitX=0.5;exitY=0;exitDx=0;exitDy=0;entryX=0.25;entryY=1;entryDx=0;entryDy=0;endFill=1;" edge="1" parent="1" source="9ZwK6Me79E_A5cQdYJ6u-11" target="39150e848f15840c-7">
          <mxGeometry width="50" height="50" relative="1" as="geometry">
            <mxPoint x="490" y="310" as="sourcePoint" />
            <mxPoint x="540" y="260" as="targetPoint" />
          </mxGeometry>
        </mxCell>
        <mxCell id="9ZwK6Me79E_A5cQdYJ6u-16" value="ATM Transaction" style="text;html=1;align=center;verticalAlign=middle;resizable=0;points=[];autosize=1;strokeColor=none;fillColor=none;" vertex="1" parent="1">
          <mxGeometry x="680" y="110" width="110" height="30" as="geometry" />
        </mxCell>
        <mxCell id="9ZwK6Me79E_A5cQdYJ6u-17" value="Account Information" style="text;html=1;align=center;verticalAlign=middle;resizable=0;points=[];autosize=1;strokeColor=none;fillColor=none;" vertex="1" parent="1">
          <mxGeometry x="680" y="255" width="130" height="30" as="geometry" />
        </mxCell>
        <mxCell id="9ZwK6Me79E_A5cQdYJ6u-25" style="edgeStyle=elbowEdgeStyle;rounded=0;html=1;labelBackgroundColor=none;startArrow=none;startFill=0;startSize=8;endArrow=none;endFill=0;endSize=16;fontFamily=Verdana;fontSize=12;exitX=0.5;exitY=1;exitDx=0;exitDy=0;" edge="1" parent="1" source="9ZwK6Me79E_A5cQdYJ6u-26">
          <mxGeometry relative="1" as="geometry">
            <mxPoint x="380" y="610" as="sourcePoint" />
            <mxPoint x="430" y="610" as="targetPoint" />
            <Array as="points" />
          </mxGeometry>
        </mxCell>
        <mxCell id="9ZwK6Me79E_A5cQdYJ6u-27" value="Web Merchant Transaction" style="text;html=1;align=center;verticalAlign=middle;resizable=0;points=[];autosize=1;strokeColor=none;fillColor=none;" vertex="1" parent="1">
          <mxGeometry x="360" y="630" width="170" height="30" as="geometry" />
        </mxCell>
        <mxCell id="9ZwK6Me79E_A5cQdYJ6u-28" value="" style="edgeStyle=elbowEdgeStyle;rounded=0;html=1;labelBackgroundColor=none;startArrow=none;startFill=0;startSize=8;endArrow=none;endFill=0;endSize=16;fontFamily=Verdana;fontSize=12;exitX=0.5;exitY=1;exitDx=0;exitDy=0;" edge="1" parent="1" source="9ZwK6Me79E_A5cQdYJ6u-11" target="9ZwK6Me79E_A5cQdYJ6u-26">
          <mxGeometry relative="1" as="geometry">
            <mxPoint x="440" y="425" as="sourcePoint" />
            <mxPoint x="430" y="610" as="targetPoint" />
            <Array as="points" />
          </mxGeometry>
        </mxCell>
        <mxCell id="9ZwK6Me79E_A5cQdYJ6u-26" value="" style="ellipse;whiteSpace=wrap;html=1;rounded=0;shadow=0;comic=0;labelBackgroundColor=none;strokeWidth=1;fontFamily=Verdana;fontSize=12;align=center;" vertex="1" parent="1">
          <mxGeometry x="430" y="600" width="20" height="20" as="geometry" />
        </mxCell>
        <mxCell id="9ZwK6Me79E_A5cQdYJ6u-29" style="edgeStyle=elbowEdgeStyle;rounded=0;html=1;labelBackgroundColor=none;startArrow=none;startFill=0;startSize=8;endArrow=none;endFill=0;endSize=16;fontFamily=Verdana;fontSize=12;exitX=0.5;exitY=1;exitDx=0;exitDy=0;" edge="1" parent="1" source="9ZwK6Me79E_A5cQdYJ6u-30">
          <mxGeometry relative="1" as="geometry">
            <mxPoint x="540" y="640" as="sourcePoint" />
            <mxPoint x="590" y="640" as="targetPoint" />
            <Array as="points" />
          </mxGeometry>
        </mxCell>
        <mxCell id="9ZwK6Me79E_A5cQdYJ6u-31" value="Online Transaction" style="text;html=1;align=center;verticalAlign=middle;resizable=0;points=[];autosize=1;strokeColor=none;fillColor=none;" vertex="1" parent="1">
          <mxGeometry x="535" y="660" width="120" height="30" as="geometry" />
        </mxCell>
        <mxCell id="9ZwK6Me79E_A5cQdYJ6u-32" value="" style="edgeStyle=elbowEdgeStyle;rounded=0;html=1;labelBackgroundColor=none;startArrow=none;startFill=0;startSize=8;endArrow=none;endFill=0;endSize=16;fontFamily=Verdana;fontSize=12;exitX=0.5;exitY=1;exitDx=0;exitDy=0;" edge="1" parent="1" source="39150e848f15840c-10" target="9ZwK6Me79E_A5cQdYJ6u-30">
          <mxGeometry relative="1" as="geometry">
            <mxPoint x="590" y="590" as="sourcePoint" />
            <mxPoint x="590" y="640" as="targetPoint" />
            <Array as="points" />
          </mxGeometry>
        </mxCell>
        <mxCell id="9ZwK6Me79E_A5cQdYJ6u-30" value="" style="ellipse;whiteSpace=wrap;html=1;rounded=0;shadow=0;comic=0;labelBackgroundColor=none;strokeWidth=1;fontFamily=Verdana;fontSize=12;align=center;" vertex="1" parent="1">
          <mxGeometry x="580" y="635" width="20" height="20" as="geometry" />
        </mxCell>
        <mxCell id="9ZwK6Me79E_A5cQdYJ6u-39" style="edgeStyle=orthogonalEdgeStyle;rounded=0;orthogonalLoop=1;jettySize=auto;html=1;exitX=0.5;exitY=1;exitDx=0;exitDy=0;endArrow=none;endFill=0;" edge="1" parent="1" source="9ZwK6Me79E_A5cQdYJ6u-33">
          <mxGeometry relative="1" as="geometry">
            <mxPoint x="810.25" y="640" as="targetPoint" />
          </mxGeometry>
        </mxCell>
        <mxCell id="9ZwK6Me79E_A5cQdYJ6u-33" value="Card Reader" style="shape=component;align=left;spacingLeft=36;rounded=0;shadow=0;comic=0;labelBackgroundColor=none;strokeWidth=1;fontFamily=Verdana;fontSize=12;html=1;" vertex="1" parent="1">
          <mxGeometry x="750" y="530" width="120" height="60" as="geometry" />
        </mxCell>
        <mxCell id="9ZwK6Me79E_A5cQdYJ6u-35" value="" style="endArrow=none;dashed=1;html=1;dashPattern=1 3;strokeWidth=2;rounded=0;entryX=0.75;entryY=1;entryDx=0;entryDy=0;exitX=0.5;exitY=0;exitDx=0;exitDy=0;" edge="1" parent="1" source="9ZwK6Me79E_A5cQdYJ6u-33" target="39150e848f15840c-7">
          <mxGeometry width="50" height="50" relative="1" as="geometry">
            <mxPoint x="520" y="400" as="sourcePoint" />
            <mxPoint x="570" y="350" as="targetPoint" />
          </mxGeometry>
        </mxCell>
        <mxCell id="9ZwK6Me79E_A5cQdYJ6u-38" style="edgeStyle=orthogonalEdgeStyle;rounded=0;orthogonalLoop=1;jettySize=auto;html=1;entryX=0.5;entryY=0;entryDx=0;entryDy=0;endArrow=none;endFill=0;" edge="1" parent="1" source="9ZwK6Me79E_A5cQdYJ6u-37" target="9ZwK6Me79E_A5cQdYJ6u-33">
          <mxGeometry relative="1" as="geometry" />
        </mxCell>
        <mxCell id="9ZwK6Me79E_A5cQdYJ6u-37" value="Employee&lt;div&gt;Console&lt;/div&gt;" style="shape=component;align=left;spacingLeft=36;rounded=0;shadow=0;comic=0;labelBackgroundColor=none;strokeWidth=1;fontFamily=Verdana;fontSize=12;html=1;" vertex="1" parent="1">
          <mxGeometry x="750" y="365" width="120" height="60" as="geometry" />
        </mxCell>
        <mxCell id="9ZwK6Me79E_A5cQdYJ6u-40" value="" style="ellipse;whiteSpace=wrap;html=1;rounded=0;shadow=0;comic=0;labelBackgroundColor=none;strokeWidth=1;fontFamily=Verdana;fontSize=12;align=center;" vertex="1" parent="1">
          <mxGeometry x="800" y="635" width="20" height="20" as="geometry" />
        </mxCell>
        <mxCell id="9ZwK6Me79E_A5cQdYJ6u-41" value="Client Desktop Transaction" style="text;html=1;align=center;verticalAlign=middle;resizable=0;points=[];autosize=1;strokeColor=none;fillColor=none;" vertex="1" parent="1">
          <mxGeometry x="725" y="660" width="170" height="30" as="geometry" />
        </mxCell>
      </root>
    </mxGraphModel>
  </diagram>
</mxfile>
